#!OML:ASF H:\Punching\Project 1\Capture day 1\Session 1\female.ASF
:FULLY-SPECIFIED
:DEGREES
1221
root -2.1237 11.6312 4.00653 16.5161 17.864 -0.230363
lowerback 18.6759 1.45911 5.57735
upperback -0.349717 3.39902 2.12676
thorax -10.7147 1.36799 -1.75946
lowerneck -9.6219 -1.05325 7.59818
upperneck 19.6815 -2.22939 -2.47736
head 7.52794 -0.705218 -2.2805
rclavicle -2.38542e-014 2.54444e-014
rhumerus 20.1714 16.6831 -78.8411
rradius 137.581
rwrist -47.4752
rhand -15.3734 -7.35213
rfingers 7.12502
rthumb 10.8046 -37.0542
lclavicle -2.38542e-014 2.54444e-014
lhumerus 6.18182 -35.5515 80.2271
lradius 140.654
lwrist 24.7749
lhand -11.7397 25.3893
lfingers 7.12502
lthumb 14.3079 54.8763
rfemur -80.1911 -9.15174 13.7431
rtibia 92.3439
rfoot -25.3858 -6.60722
rtoes -8.75237
lfemur -52.0154 0.705629 11.4589
ltibia 95.3901
lfoot -27.1215 -17.8713
ltoes -43.1462
1222
root -2.0833 11.6214 4.00463 16.3673 15.9784 -0.85019
lowerback 18.5766 1.14128 5.22215
upperback -0.293333 2.87524 1.99666
thorax -10.6373 1.13962 -1.55786
lowerneck -9.70444 -0.0794066 8.72042
upperneck 19.9718 -0.994917 -3.05319
head 7.69956 -0.0868854 -2.55377
rclavicle 1.94809e-014 9.54166e-015
rhumerus 19.8969 18.0061 -79.1927
rradius 137.472
rwrist -47.3338
rhand -15.4141 -7.34764
rfingers 7.12502
rthumb 10.7654 -37.0518
lclavicle 1.94809e-014 9.54166e-015
lhumerus 7.00861 -34.7695 79.6373
lradius 139.953
lwrist 25.1487
lhand -12.2286 26.2859
lfingers 7.12502
lthumb 13.8367 55.8057
rfemur -80.637 -8.0977 14.3993
rtibia 91.9283
rfoot -25.1605 -5.96419
rtoes -9.11715
lfemur -51.0378 1.2601 11.6179
ltibia 95.9966
lfoot -27.281 -16.8937
ltoes -43.5174
1223
root -2.04121 11.612 4.00402 16.2171 14.0314 -1.46219
lowerback 18.4871 0.807842 4.84501
upperback -0.22664 2.32552 1.84781
thorax -10.5511 0.899209 -1.35799
lowerneck -9.70152 0.925714 9.89793
upperneck 20.2337 0.281392 -3.62245
head 7.87431 0.555042 -2.82629
rclavicle 4.49253e-014 1.90833e-014
rhumerus 19.5868 19.3018 -79.4656
rradius 137.411
rwrist -47.286
rhand -15.4201 -7.35042
rfingers 7.12502
rthumb 10.7595 -37.0549
lclavicle 4.49253e-014 1.90833e-014
lhumerus 8.0483 -33.7302 78.8726
lradius 139.028
lwrist 25.6944
lhand -12.7217 27.2696
lfingers 7.12502
lthumb 13.3615 56.8211
rfemur -81.0159 -7.01189 15.0411
rtibia 91.4882
rfoot -24.9576 -5.31622
rtoes -9.53283
lfemur -49.9695 1.89025 11.7421
ltibia 96.5695
lfoot -27.3913 -15.9764
ltoes -43.8106
1224
root -1.99819 11.6028 4.00511 16.0686 12.0466 -2.04632
lowerback 18.4147 0.458999 4.43756
upperback -0.167145 1.7491 1.67419
thorax -10.4794 0.645767 -1.16169
lowerneck -9.56113 1.94357 11.1114
upperneck 20.4663 1.58235 -4.16395
head 8.04301 1.21377 -3.08876
rclavicle 4.41302e-014 2.06736e-014
rhumerus 19.2267 20.5481 -79.6673
rradius 137.382
rwrist -47.3012
rhand -15.3569 -7.3424
rfingers 7.12502
rthumb 10.8205 -37.0437
lclavicle 4.41302e-014 2.06736e-014
lhumerus 9.20253 -32.4214 77.9844
lradius 137.852
lwrist 26.4008
lhand -13.2231 28.2299
lfingers 7.12502
lthumb 12.8782 57.8126
rfemur -81.3255 -5.91477 15.6533
rtibia 91.0361
rfoot -24.7795 -4.67237
rtoes -10.0235
lfemur -48.8151 2.5897 11.8175
ltibia 97.0958
lfoot -27.4848 -15.0943
ltoes -44.1173
1225
root -1.955 11.5947 4.00809 15.9174 10.0272 -2.6028
lowerback 18.3578 0.102131 3.9948
upperback -0.094598 1.15408 1.48023
thorax -10.3981 0.384359 -0.963042
lowerneck -9.35498 2.97178 12.3263
upperneck 20.678 2.90108 -4.65487
head 8.22094 1.88548 -3.32791
rclavicle 9.74045e-015 1.35174e-014
rhumerus 18.8814 21.7332 -79.7765
rradius 137.36
rwrist -47.2944
rhand -15.2318 -7.3203
rfingers 7.12502
rthumb 10.9412 -37.0152
lclavicle 9.74045e-015 1.35174e-014
lhumerus 10.5469 -30.8255 76.9365
lradius 136.359
lwrist 27.2337
lhand -13.7369 29.114
lfingers 7.12502
lthumb 12.3828 58.7272
rfemur -81.5539 -4.79297 16.2273
rtibia 90.5736
rfoot -24.6408 -4.01332
rtoes -10.5198
lfemur -47.5796 3.35478 11.8522
ltibia 97.5675
lfoot -27.5279 -14.2929
ltoes -44.3292
1226
root -1.91302 11.5872 4.01212 15.7802 8.0212 -3.11721
lowerback 18.3033 -0.269419 3.51092
upperback -0.0113528 0.530542 1.27027
thorax -10.3021 0.110617 -0.751237
lowerneck -9.09684 4.00268 13.535
upperneck 20.8622 4.22968 -5.10141
head 8.40692 2.56493 -3.54393
rclavicle -2.6339e-015 -3.1408e-014
rhumerus 18.5857 22.8423 -79.7961
rradius 137.313
rwrist -47.2069
rhand -15.0419 -7.25811
rfingers 7.12502
rthumb 11.1243 -36.9432
lclavicle -2.6339e-015 -3.1408e-014
lhumerus 12.0414 -28.9446 75.7716
lradius 134.483
lwrist 28.0413
lhand -14.1925 29.8823
lfingers 7.12502
lthumb 11.9435 59.5216
rfemur -81.7248 -3.67911 16.7549
rtibia 90.1141
rfoot -24.5412 -3.3416
rtoes -11.0137
lfemur -46.3218 4.16364 11.8505
ltibia 97.9854
lfoot -27.5297 -13.5606
ltoes -44.4853
1227
root -1.87302 11.5807 4.01662 15.6583 6.05428 -3.58092
lowerback 18.2497 -0.65649 2.97687
upperback 0.0912196 -0.124333 1.04514
thorax -10.1799 -0.17641 -0.519875
lowerneck -8.82809 5.03643 14.7447
upperneck 21.0225 5.56458 -5.51417
head 8.60903 3.24935 -3.73996
rclavicle 5.31749e-015 1.38155e-014
rhumerus 18.3862 23.8639 -79.7343
rradius 137.212
rwrist -46.9914
rhand -14.7967 -7.14532
rfingers 7.12502
rthumb 11.3609 -36.8176
lclavicle 5.31749e-015 1.38155e-014
lhumerus 13.7134 -26.8168 74.476
lradius 132.102
lwrist 28.5717
lhand -14.5563 30.5354
lfingers 7.12502
lthumb 11.5927 60.1948
rfemur -81.8451 -2.58366 17.2227
rtibia 89.6632
rfoot -24.484 -2.64502
rtoes -11.4565
lfemur -45.0726 4.9995 11.812
ltibia 98.3527
lfoot -27.4714 -12.9132
ltoes -44.5249
1228
root -1.83596 11.5748 4.02051 15.5586 4.15895 -3.98991
lowerback 18.1945 -1.05935 2.38768
upperback 0.208771 -0.810338 0.813726
thorax -10.0331 -0.476723 -0.257048
lowerneck -8.54483 6.064 15.9573
upperneck 21.1407 6.89928 -5.91896
head 8.81964 3.93279 -3.92422
rclavicle -5.36719e-015 4.37326e-015
rhumerus 18.2861 24.8183 -79.6071
rradius 137.045
rwrist -46.5945
rhand -14.5272 -6.96301
rfingers 7.12502
rthumb 11.6207 -36.6208
lclavicle -5.36719e-015 4.37326e-015
lhumerus 15.5421 -24.5255 73.0713
lradius 129.082
lwrist 28.5063
lhand -14.8118 31.073
lfingers 7.12502
lthumb 11.3463 60.746
rfemur -81.9367 -1.51617 17.622
rtibia 89.2296
rfoot -24.4562 -1.93123
rtoes -11.8142
lfemur -43.8787 5.84906 11.7452
ltibia 98.6783
lfoot -27.3455 -12.3558
ltoes -44.4562
